Coordinates
version=1
nRows=17
nColumns=38
inDegrees=no

Units are S.I. units (second, meters, Newtons, ...)
If the header above contains a line with 'inDegrees', this indicates whether rotational values are in degrees (yes) or radians (no).

endheader
time	pelvis_tilt	pelvis_list	pelvis_rotation	pelvis_tx	pelvis_ty	pelvis_tz	hip_flexion_r	hip_adduction_r	hip_rotation_r	knee_angle_r	ankle_angle_r	subtalar_angle_r	mtp_angle_r	hip_flexion_l	hip_adduction_l	hip_rotation_l	knee_angle_l	ankle_angle_l	subtalar_angle_l	mtp_angle_l	lumbar_extension	lumbar_bending	lumbar_rotation	arm_flex_r	arm_add_r	arm_rot_r	elbow_flex_r	pro_sup_r	wrist_flex_r	wrist_dev_r	arm_flex_l	arm_add_l	arm_rot_l	elbow_flex_l	pro_sup_l	wrist_flex_l	wrist_dev_l
10	1.08463	1.2544	0.409395	0.618385	2.26932	0.929595	0.204734	0.0707622	-0.111081	0.492685	-0.343907	0	0	0.54659	-0.36418	-0.125499	0.75594	-0.260546	0	0	-0.692821	-0.199136	-0.28195	0.769131	-0.117682	0.19445	1.99288	1.5708	0	0	1.06853	-0.720227	0.428429	0.78542	1.35211	0	0
10.01	1.14029	1.26159	0.35738	0.617986	2.2687	0.930128	0.181018	0.0668811	-0.11553	0.498357	-0.339363	0	0	0.529254	-0.36528	-0.128621	0.760595	-0.257453	0	0	-0.68844	-0.177612	-0.326272	0.811423	-0.0752644	0.260421	1.91437	1.5708	0	0	0.978934	-0.76724	0.346824	0.794081	1.36814	0	0
10.02	1.06446	1.25386	0.429491	0.618557	2.27001	0.92908	0.195066	0.06537	-0.107377	0.485717	-0.345677	0	0	0.55292	-0.362784	-0.128989	0.757741	-0.261689	0	0	-0.641135	-0.195471	-0.196707	0.725303	-0.162622	0.151923	1.98634	1.5708	0	0	1.11342	-0.498874	0.323926	0.486739	1.55093	0	0
10.03	1.14876	1.26626	0.351355	0.618002	2.2686	0.930141	0.163151	0.0601162	-0.114084	0.495767	-0.338249	0	0	0.526028	-0.362047	-0.131772	0.762367	-0.258737	0	0	-0.685738	-0.179552	-0.318785	0.807205	-0.0793299	0.253785	1.90956	1.5708	0	0	0.933754	-0.754746	0.316538	0.814465	1.38416	0	0
10.04	1.15001	1.26848	0.351297	0.618046	2.26849	0.930072	0.156257	0.0567297	-0.1135	0.496285	-0.338002	0	0	0.525386	-0.360187	-0.13313	0.763026	-0.25898	0	0	-0.682281	-0.181307	-0.314874	0.804514	-0.0817953	0.25047	1.90537	1.5708	0	0	0.910901	-0.748927	0.30629	0.823607	1.38281	0	0
10.05	1.16605	1.27191	0.337566	0.618026	2.26808	0.930258	0.143275	0.054273	-0.112955	0.492932	-0.337893	0	0	0.520678	-0.358827	-0.134445	0.764194	-0.25948	0	0	-0.684572	-0.188697	-0.31011	0.801432	-0.0908558	0.24194	1.8985	1.5708	0	0	0.893865	-0.742421	0.299824	0.83799	1.3837	0	0
10.06	1.12329	1.27153	0.379872	0.618343	2.26869	0.929809	0.15157	0.0482793	-0.111754	0.497464	-0.338027	0	0	0.531282	-0.353611	-0.134997	0.760759	-0.263295	0	0	-0.69624	-0.206336	-0.236876	0.75695	-0.168771	0.166292	2.00085	1.5708	0	0	0.958876	-0.665122	0.36164	0.83788	1.41513	0	0
10.07	1.07653	1.26732	0.425627	0.618509	2.26927	0.928755	0.161825	0.0459604	-0.109308	0.499748	-0.338237	0	0	0.546276	-0.35082	-0.133591	0.760576	-0.263531	0	0	-0.625795	-0.195092	-0.180559	0.719169	-0.169788	0.144653	1.96066	1.5708	0	0	1.01266	-0.507321	0.369788	0.534628	1.50676	0	0
10.08	1.1762	1.28172	0.333557	0.618261	2.26797	0.930178	0.122873	0.0429585	-0.114434	0.501464	-0.332898	0	0	0.514405	-0.350131	-0.138509	0.763657	-0.261999	0	0	-0.676651	-0.185702	-0.298225	0.796552	-0.093366	0.23769	1.89162	1.5708	0	0	0.805762	-0.713601	0.221777	0.863702	1.44317	0	0
10.09	1.18292	1.28539	0.329295	0.618373	2.26778	0.930182	0.115266	0.040516	-0.114005	0.503745	-0.331799	0	0	0.51184	-0.347885	-0.141159	0.764051	-0.263246	0	0	-0.674008	-0.187571	-0.291336	0.792845	-0.098525	0.232619	1.88846	1.5708	0	0	0.782513	-0.699545	0.202352	0.868022	1.4592	0	0
10.1	1.19227	1.2892	0.322634	0.618443	2.26751	0.930248	0.107407	0.0384505	-0.113201	0.506935	-0.330455	0	0	0.508698	-0.345766	-0.143803	0.764412	-0.264557	0	0	-0.671897	-0.189088	-0.283984	0.789521	-0.103835	0.227467	1.88495	1.5708	0	0	0.759875	-0.685162	0.18375	0.871281	1.47557	0	0
10.11	1.20261	1.29319	0.315198	0.618513	2.26719	0.930317	0.0998265	0.0365411	-0.113156	0.511158	-0.32916	0	0	0.505293	-0.343576	-0.146987	0.76468	-0.265462	0	0	-0.669692	-0.190467	-0.276234	0.786188	-0.109271	0.222142	1.88107	1.5708	0	0	0.737585	-0.670421	0.165275	0.873408	1.49379	0	0
10.12	1.23096	1.29919	0.290508	0.618546	2.26656	0.930636	0.0878311	0.0343956	-0.113394	0.516937	-0.326556	0	0	0.496525	-0.341089	-0.151327	0.765199	-0.266849	0	0	-0.68136	-0.1898	-0.272758	0.79707	-0.128141	0.231054	1.88658	1.5708	0	0	0.751029	-0.664771	0.164819	0.867587	1.5708	0	0
10.13	1.09301	1.30087	0.440575	0.618888	2.26383	0.930046	0.130138	0.0216283	-0.110821	0.532728	-0.324128	0	0	0.458826	-0.226684	0.111225	0.603047	-0.226456	0	0	-0.645259	-0.198417	-0.273718	0.778474	-0.133108	0.214645	1.88668	1.5708	0	0	0.706651	-0.645052	0.1459	0.877369	1.51215	0	0
10.14	1.09577	1.30536	0.440574	0.619097	2.26338	0.930034	0.126648	0.0203301	-0.107742	0.537656	-0.321836	0	0	0.456562	-0.222583	0.10953	0.603291	-0.226977	0	0	-0.636669	-0.20239	-0.270251	0.767886	-0.119264	0.200006	1.87163	1.5708	0	0	0.680326	-0.634505	0.128604	0.874486	1.52233	0	0
10.15	1.10819	1.30961	0.432038	0.619181	2.26286	0.930179	0.119325	0.0207607	-0.107025	0.546279	-0.315561	0	0	0.452735	-0.219163	0.109747	0.601575	-0.228682	0	0	-0.633948	-0.202565	-0.261118	0.764638	-0.124782	0.194304	1.86611	1.5708	0	0	0.660875	-0.620968	0.117777	0.87222	1.53178	0	0
10.16	1.08793	1.31042	0.455035	0.619322	2.26264	0.929986	0.123346	0.0207248	-0.105334	0.557026	-0.307783	0	0	0.457381	-0.21492	0.111118	0.598363	-0.231895	0	0	-0.640054	-0.212026	-0.228345	0.738052	-0.152793	0.149683	1.91299	1.5708	0	0	0.665437	-0.591609	0.121848	0.892869	1.55557	0	0
